<svg width="1000" height="1000" viewBox="0 0 1000 1000" fill="none" xmlns="http://www.w3.org/2000/svg">
<path d="M499.634 365.176C499.634 365.176 468.851 315.921 436.977 302.853C363.63 272.782 313.668 307.307 235.543 301.19C186.84 297.377 66.25 288.933 66.25 288.933C66.25 288.933 129.145 395.319 189.687 425.779C259.873 461.091 328.396 429.183 388.389 425.295C425.743 422.874 460.073 560.082 460.073 560.082C460.073 560.082 328.429 630.584 152.105 568.421C152.105 568.421 225.67 685.27 269.504 703.344C362.83 741.826 500.567 666.663 500.567 666.663C500.567 666.663 639.057 740.972 732.143 701.913C775.864 683.568 848.703 566.265 848.703 566.265C672.767 629.518 540.689 559.833 540.689 559.833C540.689 559.833 574.169 422.414 611.538 424.604C671.554 428.12 740.273 459.602 810.239 423.857C870.591 393.023 932.825 286.25 932.825 286.25C932.825 286.25 812.291 295.441 763.613 299.555C685.527 306.155 635.351 271.941 562.192 302.465C530.4 315.73 499.634 365.176 499.634 365.176Z" fill="url(#paint0_linear_3_45)"/>
<defs>
<linearGradient id="paint0_linear_3_45" x1="422.362" y1="702.338" x2="484.343" y2="264.573" gradientUnits="userSpaceOnUse">
<stop stop-color="#00A6FF"/>
<stop offset="1" stop-color="#67C2F2"/>
</linearGradient>
</defs>
</svg>
